HIERARCHY
ROOT Hips
{
	OFFSET 4.076200 -17.275196 43.303001
	CHANNELS 6 Xposition Yposition Zposition Zrotation Xrotation Yrotation
	JOINT Chest
	{
		OFFSET -0.689800 0.941999 5.341000
		CHANNELS 6 Xposition Yposition Zposition Zrotation Xrotation Yrotation
		JOINT Chest2
		{
			OFFSET 0.000000 0.000000 4.278900
			CHANNELS 6 Xposition Yposition Zposition Zrotation Xrotation Yrotation
			JOINT Neck
			{
				OFFSET 0.000000 0.000000 9.970299
				CHANNELS 6 Xposition Yposition Zposition Zrotation Xrotation Yrotation
				JOINT Head
				{
					OFFSET 0.000000 0.000002 2.173901
					CHANNELS 6 Xposition Yposition Zposition Zrotation Xrotation Yrotation
					End Site
					{
						OFFSET 0.000000 0.000000 6.488197
					}
				}
			}
			JOINT LeftCollar
			{
				OFFSET 2.472300 -0.285801 5.433899
				CHANNELS 6 Xposition Yposition Zposition Zrotation Xrotation Yrotation
				JOINT LeftShoulder
				{
					OFFSET 5.327700 0.000000 0.000000
					CHANNELS 6 Xposition Yposition Zposition Zrotation Xrotation Yrotation
					JOINT LeftElbow
					{
						OFFSET 0.000000 0.000000 -10.713001
						CHANNELS 6 Xposition Yposition Zposition Zrotation Xrotation Yrotation
						JOINT LeftWrist
						{
							OFFSET 0.000000 -0.000002 -13.396900
							CHANNELS 6 Xposition Yposition Zposition Zrotation Xrotation Yrotation
							End Site
							{
								OFFSET 0.000000 0.000000 -2.173901
							}
						}
					}
				}
			}
			JOINT RightCollar
			{
				OFFSET -2.589400 -1.358400 6.105000
				CHANNELS 6 Xposition Yposition Zposition Zrotation Xrotation Yrotation
				JOINT RightShoulder
				{
					OFFSET -4.580200 0.000000 0.000000
					CHANNELS 6 Xposition Yposition Zposition Zrotation Xrotation Yrotation
					JOINT RightElbow
					{
						OFFSET 0.000000 0.000000 -10.761101
						CHANNELS 6 Xposition Yposition Zposition Zrotation Xrotation Yrotation
						JOINT RightWrist
						{
							OFFSET 0.000000 -0.000002 -13.028500
							CHANNELS 6 Xposition Yposition Zposition Zrotation Xrotation Yrotation
							End Site
							{
								OFFSET 0.000000 0.000000 -2.173901
							}
						}
					}
				}
			}
		}
	}
	JOINT LeftHip
	{
		OFFSET 2.532500 0.486900 -2.489700
		CHANNELS 6 Xposition Yposition Zposition Zrotation Xrotation Yrotation
		JOINT LeftKnee
		{
			OFFSET 0.000000 -0.000002 -18.199398
			CHANNELS 6 Xposition Yposition Zposition Zrotation Xrotation Yrotation
			JOINT LeftAnkle
			{
				OFFSET 0.000000 -0.000002 -16.083900
				CHANNELS 6 Xposition Yposition Zposition Zrotation Xrotation Yrotation
				End Site
				{
					OFFSET 0.000000 -8.641399 0.000000
				}
			}
		}
	}
	JOINT RightHip
	{
		OFFSET -2.112700 -0.049900 -2.711102
		CHANNELS 6 Xposition Yposition Zposition Zrotation Xrotation Yrotation
		JOINT RightKnee
		{
			OFFSET 0.000000 -0.000002 -19.127298
			CHANNELS 6 Xposition Yposition Zposition Zrotation Xrotation Yrotation
			JOINT RightAnkle
			{
				OFFSET 0.000000 -0.000002 -14.874901
				CHANNELS 6 Xposition Yposition Zposition Zrotation Xrotation Yrotation
				End Site
				{
					OFFSET 0.000000 -8.198299 0.000000
				}
			}
		}
	}
}
MOTION
Frames: 4
Frame Time: 0.041667
100.325890 -54.090096 42.986694 -80.594798 5.637236 -1.685097 -0.689802 0.941996 5.340993 7.188844 -20.577372 7.921794 0.000002 -0.000010 4.278902 0.328653 2.517843 0.423846 -0.000001 -0.000009 9.970291 60.113690 -5.451476 13.834261 -0.000008 0.000004 2.173902 3.487336 -2.201272 5.919325 2.472294 -0.285810 5.433901 -12.010523 6.633742 -10.043425 5.327700 0.000003 -0.000001 1152.158930 -109.005858 1128.582537 0.000006 0.000005 -10.712999 221.198244 -148.747901 229.440807 -0.000004 -0.000009 -13.396903 78.386591 -177.330029 96.089867 -2.589399 -1.358420 6.104995 27.115258 24.102442 26.553687 -4.580189 -0.000003 0.000009 -631.690920 -75.146096 -590.672574 0.000002 0.000012 -10.761095 118.136864 -141.571353 129.928230 0.000007 -0.000018 -13.028489 533.284013 -531.863607 951.871555 2.532496 0.486891 -2.489700 -712.446268 -6.993238 2.712137 -0.000007 -0.000001 -18.199396 938.422312 519.338898 -176.149978 -0.000001 -0.000001 -16.083902 -181.105348 146.110847 154.950641 -2.112705 -0.049907 -2.711104 0.805733 -4.313801 7.251145 0.000001 -0.000002 -19.127296 1059.497961 58.021173 -1080.000221 -0.000002 0.000003 -14.874907 199.712423 120.712392 174.784951
100.305992 -54.113697 42.990299 -80.387590 5.663163 -1.680920 -0.689791 0.942001 5.340998 7.061194 -20.709598 7.942900 0.000003 -0.000002 4.278899 0.256382 2.598630 0.431025 -0.000004 -0.000013 9.970284 60.082934 -5.482422 13.889877 0.000000 0.000004 2.173906 3.474859 -2.224356 5.969597 2.472297 -0.285812 5.433898 -11.494367 5.987610 -10.822757 5.327699 0.000014 -0.000003 1153.291757 -108.723689 1130.182113 -0.000013 0.000013 -10.713009 221.450702 -149.084902 229.222351 0.000002 -0.000007 -13.396903 78.084041 -177.212017 96.779129 -2.589403 -1.358410 6.104996 26.642843 23.208530 27.234995 -4.580201 -0.000007 0.000002 -632.101441 -75.874359 -591.750323 0.000002 0.000010 -10.761090 119.366503 -141.408070 130.492321 0.000000 -0.000025 -13.028496 532.645035 -531.876557 950.328916 2.532508 0.486902 -2.489704 -712.997109 -6.939380 2.745774 -0.000009 -0.000013 -18.199398 938.328219 519.447306 -176.092686 0.000014 0.000000 -16.083904 -180.821363 146.197085 155.171407 -2.112693 -0.049901 -2.711105 -0.040540 -4.504254 7.290721 -0.000003 -0.000013 -19.127300 1059.733028 58.111441 -1079.742860 0.000002 -0.000005 -14.874900 199.910047 120.568275 174.842461
100.274200 -54.138691 42.990791 -80.244997 5.697556 -1.597088 -0.689811 0.942015 5.340992 7.002154 -20.909268 7.847617 0.000003 -0.000004 4.278898 0.200440 2.689641 0.441600 -0.000004 0.000001 9.970286 60.035662 -5.445817 13.921231 -0.000004 -0.000009 2.173895 3.436336 -2.236557 6.082919 2.472297 -0.285799 5.433889 -11.225315 5.707975 -11.333141 5.327703 0.000005 0.000006 1153.532945 -108.540216 1130.572909 -0.000005 0.000007 -10.713003 221.175199 -149.152426 228.879257 0.000001 -0.000010 -13.396904 78.031161 -177.015240 97.403101 -2.589409 -1.358398 6.104994 26.294210 22.687580 27.734576 -4.580197 0.000002 0.000001 -631.790968 -76.536163 -591.728357 0.000012 0.000008 -10.761094 120.424937 -141.586543 130.846740 0.000013 0.000002 -13.028502 532.332813 -531.897485 948.579841 2.532485 0.486915 -2.489708 -713.254962 -6.904134 2.693248 0.000001 -0.000004 -18.199396 938.122439 519.501893 -176.053535 -0.000005 -0.000008 -16.083904 -180.680551 146.445376 155.191597 -2.112711 -0.049889 -2.711104 -0.381855 -4.590956 7.234053 -0.000002 0.000000 -19.127296 1059.818597 58.152374 -1079.645598 -0.000005 -0.000005 -14.874902 200.021639 120.489755 174.833568
100.239403 -54.169895 42.993694 -80.031478 5.878958 -1.509099 -0.689810 0.942009 5.340996 6.893653 -21.253522 7.786169 -0.000010 -0.000009 4.278903 0.175422 2.740772 0.448791 0.000002 0.000012 9.970297 59.860092 -5.449195 13.979524 -0.000003 0.000002 2.173892 3.541438 -2.191895 6.113512 2.472298 -0.285797 5.433904 -11.163618 5.764005 -11.593544 5.327699 -0.000007 0.000002 1153.577423 -108.748933 1130.452698 -0.000012 -0.000001 -10.712999 221.283458 -149.641494 228.744142 0.000011 -0.000017 -13.396907 77.378674 -176.937430 98.087670 -2.589403 -1.358386 6.105003 26.198157 22.704630 28.037711 -4.580194 0.000005 -0.000003 -631.561037 -76.965010 -591.161943 0.000001 0.000014 -10.761101 121.514448 -141.325165 131.372733 0.000012 -0.000021 -13.028492 531.613403 -532.057147 946.788255 2.532489 0.486914 -2.489706 -713.544344 -6.975987 2.624726 0.000004 -0.000013 -18.199396 937.689460 519.578774 -175.932614 -0.000004 0.000002 -16.083902 -180.407644 146.561639 155.476894 -2.112711 -0.049889 -2.711108 -0.433694 -4.716365 7.190220 0.000005 0.000005 -19.127296 1059.687785 58.170904 -1079.656089 -0.000004 -0.000005 -14.874904 200.082141 120.443802 174.888442
